<svg xmlns="http://www.w3.org/2000/svg" width="32" height="32" fill="none"><circle cx="16" cy="16" r="16" fill="#1E293B"/><path fill="#fff" d="m23.633 10.774-5.002 4.003a.99.99 0 0 1-1.25.03l-3.377-2.532-4.377 3.502a.996.996 0 0 1-1.406-.156c-.344-.407-.282-1.063.156-1.407l5.002-4.003c.344-.28.844-.28 1.22 0l3.375 2.533 4.408-3.533c.407-.344 1.063-.25 1.407.156.344.438.25 1.063-.156 1.407Zm-10.63 5.222c0-.532.438-1 1.001-1 .532 0 1 .468 1 1V22c0 .563-.468 1.001-1 1.001-.563 0-1-.438-1-1v-6.004Zm-4 3.002c0-.532.437-1 1-1 .531 0 1 .468 1 1v3.001c0 .563-.469 1.001-1 1.001-.563 0-1-.438-1-1v-3.002Zm9.003-2.001c.531 0 1 .469 1 1V22c0 .563-.469 1.001-1 1.001-.563 0-1-.438-1-1v-4.003c0-.531.437-1 1-1Zm3-1c0-.533.438-1.002 1.001-1.002.532 0 1 .47 1 1.001V22c0 .563-.468 1.001-1 1.001-.563 0-1-.438-1-1v-6.004Z"/></svg>