<svg xmlns="http://www.w3.org/2000/svg" width="26" height="26" fill="none"><path fill="url(#a)" d="M6.484 7h4.22C14.405.86 20.171.625 23.64 1.281c.562.094.984.516 1.078 1.078.656 3.47.422 9.235-5.719 12.938v4.219c0 1.172-.656 2.297-1.688 2.906l-4.125 2.437c-.374.235-.796.235-1.124 0-.376-.187-.563-.562-.563-.984v-5.344c0-1.078-.422-2.11-1.172-2.86a4.043 4.043 0 0 0-2.86-1.171H2.126c-.422 0-.797-.188-.984-.563-.235-.328-.235-.75 0-1.124l2.437-4.126C4.188 7.657 5.313 7 6.484 7Zm14.391 0c0-.656-.375-1.266-.938-1.594-.609-.328-1.312-.328-1.875 0A1.778 1.778 0 0 0 17.125 7c0 .703.328 1.313.938 1.64.562.329 1.265.329 1.875 0A1.89 1.89 0 0 0 20.875 7ZM8.781 23.031C7.187 24.671 4.094 24.953 2.312 25A1.23 1.23 0 0 1 1 23.687c.047-1.78.328-4.875 1.969-6.468 1.594-1.594 4.219-1.594 5.812 0 1.594 1.593 1.594 4.218 0 5.812Zm-2.203-1.687a1.305 1.305 0 0 0 0-1.922 1.305 1.305 0 0 0-1.922 0c-.468.469-.61 1.312-.656 1.922a.64.64 0 0 0 .656.656c.61-.047 1.453-.188 1.922-.656Z"/><defs><linearGradient id="a" x1="13" x2="13" y1="11" y2="25" gradientUnits="userSpaceOnUse"><stop stop-color="#fff"/><stop offset="1" stop-color="#E1EBF6"/></linearGradient></defs></svg>