<svg xmlns="http://www.w3.org/2000/svg" width="16" height="16" fill="none"><path fill="#1E293B" d="M11 0h4c.531 0 1 .469 1 1v4c0 .406-.25.781-.625.938a1.01 1.01 0 0 1-1.094-.22L13 4.439l-5.313 5.28a.964.964 0 0 1-1.406 0 .964.964 0 0 1 0-1.405L11.563 3 10.28 1.719a1.01 1.01 0 0 1-.219-1.094A1.03 1.03 0 0 1 11 0ZM2.5 1H6c.531 0 1 .469 1 1 0 .563-.469 1-1 1H2.5c-.281 0-.5.25-.5.5v10c0 .281.219.5.5.5h10c.25 0 .5-.219.5-.5V10c0-.531.438-1 1-1 .531 0 1 .469 1 1v3.5c0 1.406-1.125 2.5-2.5 2.5h-10A2.468 2.468 0 0 1 0 13.5v-10C0 2.125 1.094 1 2.5 1Z"/></svg>