<svg xmlns="http://www.w3.org/2000/svg" width="32" height="32" fill="none"><circle cx="16" cy="16" r="16" fill="#3B82F6"/><path fill="#fff" d="M18.286 9.714v12.572c0 .964-.75 1.714-1.715 1.714H15.43c-.929 0-1.715-.75-1.715-1.714V9.714C13.714 8.786 14.5 8 15.43 8h1.142c.965 0 1.715.786 1.715 1.714ZM24 16.571v5.715C24 23.25 23.25 24 22.286 24h-1.143c-.929 0-1.714-.75-1.714-1.714V16.57c0-.928.785-1.714 1.714-1.714h1.143c.964 0 1.714.786 1.714 1.714Zm-13.143-6.285c.964 0 1.714.785 1.714 1.714v10.286c0 .964-.75 1.714-1.714 1.714H9.714C8.786 24 8 23.25 8 22.286V12c0-.929.786-1.714 1.714-1.714h1.143Z"/></svg>