<svg xmlns="http://www.w3.org/2000/svg" width="20" height="15" fill="none"><g clip-path="url(#a)"><path fill="#fff" d="M0 0h20v15H0z"/><path fill="#F7FCFF" fill-rule="evenodd" d="M0 0v15h20V0H0Z" clip-rule="evenodd"/><mask id="b" width="20" height="15" x="0" y="0" maskUnits="userSpaceOnUse" style="mask-type:luminance"><path fill="#fff" fill-rule="evenodd" d="M2 0a2 2 0 0 0-2 2v11a2 2 0 0 0 2 2h16a2 2 0 0 0 2-2V2a2 2 0 0 0-2-2H2Z" clip-rule="evenodd"/></mask><g mask="url(#b)"><path fill="#E31D1C" fill-rule="evenodd" d="M10 12.188a4.688 4.688 0 1 0 0-9.376 4.688 4.688 0 0 0 0 9.376Z" clip-rule="evenodd"/></g></g><defs><clipPath id="a"><path fill="#fff" d="M0 0h20v15H0z"/></clipPath></defs></svg>