<svg xmlns="http://www.w3.org/2000/svg" width="20" height="21" fill="none"><path fill="#fff" d="M13.75.5h5c.664 0 1.25.586 1.25 1.25v5c0 .508-.313.977-.781 1.172a1.264 1.264 0 0 1-1.367-.274L16.25 6.047l-6.64 6.601a1.205 1.205 0 0 1-1.758 0 1.205 1.205 0 0 1 0-1.757l6.601-6.641-1.601-1.602a1.264 1.264 0 0 1-.274-1.367A1.28 1.28 0 0 1 13.75.5ZM3.125 1.75H7.5c.664 0 1.25.586 1.25 1.25 0 .703-.586 1.25-1.25 1.25H3.125a.642.642 0 0 0-.625.625v12.5c0 .352.273.625.625.625h12.5a.642.642 0 0 0 .625-.625V13c0-.664.547-1.25 1.25-1.25.664 0 1.25.586 1.25 1.25v4.375a3.11 3.11 0 0 1-3.125 3.125h-12.5C1.367 20.5 0 19.133 0 17.375v-12.5A3.11 3.11 0 0 1 3.125 1.75Z"/></svg>