<svg xmlns="http://www.w3.org/2000/svg" width="20" height="15" fill="none"><path fill="#2E42A5" fill-rule="evenodd" d="M0 2a2 2 0 0 1 2-2h16a2 2 0 0 1 2 2v11a2 2 0 0 1-2 2H2a2 2 0 0 1-2-2V2Z" clip-rule="evenodd"/><g clip-path="url(#a)"><path fill="#2E42A5" d="M1 1h11v9H1z"/><path fill="#F7FCFF" d="m-.253 9.125 2.476 1.086 10.083-8.03L13.612.567 10.965.204l-4.113 3.46-3.31 2.332-3.795 3.129Z"/><path fill="#F50100" d="m.086 9.886 1.261.63L13.143.417h-1.77L.085 9.886Z"/><path fill="#F7FCFF" d="m13.503 9.125-2.197 1.396L.944 2.18-.362.566 2.285.204l4.113 3.46 3.31 2.332 3.795 3.129Z"/><path fill="#F50100" d="m13.418 9.67-1.261.631-5.023-4.324-1.489-.483L-.488.573h1.771l6.13 4.804 1.628.58 4.377 3.714Z"/><path fill="#F50100" fill-rule="evenodd" d="M7 1H6v4H1v1h5v4h1V6h5V5H7V1Z" clip-rule="evenodd"/><path fill="#F7FCFF" fill-rule="evenodd" d="M5.063 1h2.875v3.063L12 4v2.875l-4.063.063V10H5.063V6.937L1 6.875V4l4.063.063V1ZM6 5H1v1h5v4h1V6h5V5H7V1H6v4Z" clip-rule="evenodd"/></g><g fill="#F7FCFF" clip-path="url(#b)"><path d="m5.92 13.278-.82.758.081-1.113-1.104-.17.922-.63-.557-.968 1.068.327.41-1.039.41 1.039 1.068-.327-.557.968.922.63-1.104.17.081 1.113-.82-.758Zm8.32-4.981-.547.505.054-.742-.735-.113.614-.42-.371-.646.712.218.273-.692.273.692.712-.218-.37.646.613.42-.736.113.055.742-.547-.505Zm.28-5.334-.547.505.054-.742-.735-.112.614-.42-.371-.646.712.218.273-.693.273.693.712-.218-.37.645.613.42-.735.113.054.742-.547-.505Zm3.2 2.667-.547.505.055-.742-.736-.113.614-.42-.371-.646.712.218.273-.692.273.692.712-.218-.37.646.613.42-.735.113.054.742-.547-.505Zm-2.56 7.667-.547.505.055-.742-.736-.113.614-.42-.371-.646.712.218.273-.692.273.692.712-.218-.37.646.613.42-.735.113.054.742-.547-.505ZM17.4 9.14l-.555.291.106-.618-.45-.438.621-.09.278-.563.278.562.62.09-.449.439.107.618-.556-.292Z"/></g><defs><clipPath id="a"><path fill="#fff" d="M1 1h11v9H1z"/></clipPath><clipPath id="b"><path fill="#fff" d="M4 1h15v13H4z"/></clipPath></defs></svg>