<svg xmlns="http://www.w3.org/2000/svg" width="28" height="28" fill="none"><path fill="#62E369" d="M23.75 4.125C26.375 6.75 28 10.188 28 13.938c0 7.624-6.375 13.874-14.063 13.874-2.312 0-4.562-.625-6.624-1.687L0 28l1.938-7.188a13.892 13.892 0 0 1-1.875-6.937C.063 6.25 6.313 0 13.937 0c3.75 0 7.25 1.5 9.813 4.125Zm-9.813 21.313c6.376 0 11.688-5.188 11.688-11.5 0-3.126-1.313-6-3.5-8.188A11.394 11.394 0 0 0 14 2.375c-6.375 0-11.563 5.188-11.563 11.5 0 2.188.626 4.313 1.75 6.188l.313.437-1.188 4.25 4.376-1.188.375.25c1.812 1.063 3.812 1.625 5.874 1.625Zm6.376-8.625c.312.187.562.25.625.437.125.125.125.813-.188 1.625-.313.813-1.688 1.563-2.313 1.625-1.125.188-2 .125-4.187-.875-3.5-1.5-5.75-5-5.938-5.188-.187-.25-1.374-1.874-1.374-3.624 0-1.688.875-2.5 1.187-2.876.313-.375.688-.437.938-.437h.624c.25 0 .5-.063.813.625.25.688 1 2.375 1.063 2.563.062.187.124.374 0 .624-.626 1.313-1.376 1.25-1 1.876 1.374 2.312 2.687 3.124 4.75 4.124.312.188.5.125.75-.062.187-.25.875-1.063 1.062-1.375.25-.375.5-.313.813-.188.312.126 2 .938 2.375 1.126Z"/></svg>