<svg xmlns="http://www.w3.org/2000/svg" width="64" height="64" fill="none"><circle cx="32" cy="32" r="32" fill="#007696"/><g clip-path="url(#a)"><path fill="#fff" d="M32 17.28c-8.116 0-14.72 6.604-14.72 14.72 0 2.534.655 5.026 1.896 7.225l-1.872 6.682a.638.638 0 0 0 .77.794l6.973-1.727A14.728 14.728 0 0 0 32 46.72c8.117 0 14.72-6.603 14.72-14.72 0-8.116-6.603-14.72-14.72-14.72Zm-5.349 7.68c.252 0 .503.003.724.014.232.011.545-.088.851.64.315.747 1.07 2.584 1.164 2.771.095.187.158.405.032.654-.125.249-.188.405-.377.623-.19.219-.397.487-.568.654-.189.187-.386.388-.166.762.22.373.979 1.595 2.103 2.585 1.443 1.27 2.66 1.665 3.038 1.852.378.187.6.155.82-.094.22-.25.944-1.09 1.196-1.462.251-.373.503-.313.85-.188.346.124 2.204 1.027 2.582 1.214.378.187.63.28.725.436.095.155.095.902-.22 1.773-.315.871-1.825 1.668-2.551 1.775-.652.095-1.477.135-2.382-.149a22.15 22.15 0 0 1-2.153-.786c-3.79-1.617-6.267-5.386-6.457-5.635-.188-.25-1.542-2.023-1.542-3.859 0-1.836.976-2.739 1.322-3.113a1.4 1.4 0 0 1 1.01-.467Z"/></g><defs><clipPath id="a"><path fill="#fff" d="M16 16h32v32H16z"/></clipPath></defs></svg>