<svg xmlns="http://www.w3.org/2000/svg" width="20" height="21" fill="none"><path fill="#475569" d="M14.336 16.633 3.867 6.164A7.618 7.618 0 0 0 2.5 10.5c0 4.14 3.36 7.5 7.5 7.5a7.618 7.618 0 0 0 4.336-1.367Zm1.758-1.758c.86-1.25 1.406-2.734 1.406-4.375C17.5 6.36 14.14 3 10 3c-1.64 0-3.125.547-4.375 1.406l10.469 10.469ZM0 10.5a9.926 9.926 0 0 1 5-8.633C8.086.07 11.875.07 15 1.867c3.086 1.797 5 5.078 5 8.633 0 3.594-1.914 6.875-5 8.672-3.125 1.797-6.914 1.797-10 0-3.125-1.797-5-5.078-5-8.672Z"/></svg>