<svg xmlns="http://www.w3.org/2000/svg" width="20" height="19" fill="none"><path fill="#475569" d="M1.25.75C1.914.75 2.5 1.336 2.5 2v13.125c0 .352.273.625.625.625H18.75c.664 0 1.25.586 1.25 1.25 0 .703-.586 1.25-1.25 1.25H3.125C1.367 18.25 0 16.883 0 15.125V2C0 1.336.547.75 1.25.75Zm5 7.5c.664 0 1.25.586 1.25 1.25V12c0 .703-.586 1.25-1.25 1.25C5.547 13.25 5 12.703 5 12V9.5c0-.664.547-1.25 1.25-1.25Zm5-2.5V12c0 .703-.586 1.25-1.25 1.25-.703 0-1.25-.547-1.25-1.25V5.75c0-.664.547-1.25 1.25-1.25.664 0 1.25.586 1.25 1.25ZM13.75 7c.664 0 1.25.586 1.25 1.25V12c0 .703-.586 1.25-1.25 1.25-.703 0-1.25-.547-1.25-1.25V8.25c0-.664.547-1.25 1.25-1.25Zm5-3.75V12c0 .703-.586 1.25-1.25 1.25-.703 0-1.25-.547-1.25-1.25V3.25c0-.664.547-1.25 1.25-1.25.664 0 1.25.586 1.25 1.25Z"/></svg>