<svg xmlns="http://www.w3.org/2000/svg" width="32" height="32" fill="none"><circle cx="16" cy="16" r="16" fill="#007696"/><path fill="#fff" d="m19.29 22.688-3-3a.964.964 0 0 1 0-1.407.964.964 0 0 1 1.405 0l1.282 1.282V10c0-.563.468-1 1-1 .562 0 1 .438 1 1v9.563l1.312-1.282a.964.964 0 0 1 1.406 0 .964.964 0 0 1 0 1.407l-3 3a.964.964 0 0 1-1.406 0Zm-11-10.407 3-3a.964.964 0 0 1 1.405 0l3 3a.964.964 0 0 1 0 1.406.964.964 0 0 1-1.406 0l-1.312-1.28V22c0 .531-.438 1-1 1-.532 0-1-.469-1-1v-9.594l-1.282 1.281a.964.964 0 0 1-1.406 0 .964.964 0 0 1 0-1.406Z"/></svg>