<svg xmlns="http://www.w3.org/2000/svg" width="188" height="24" fill="none"><path fill="#fff" d="M46.404 9.324c0 .672-.162 1.302-.486 1.89-.312.588-.81 1.062-1.494 1.422-.672.36-1.524.54-2.556.54h-2.106V18h-2.52V5.436h4.626c.972 0 1.8.168 2.484.504.684.336 1.194.798 1.53 1.386.348.588.522 1.254.522 1.998Zm-4.644 1.818c.696 0 1.212-.156 1.548-.468.336-.324.504-.774.504-1.35 0-1.224-.684-1.836-2.052-1.836h-1.998v3.654h1.998Zm8.593-1.566a3.567 3.567 0 0 1 1.26-1.242c.528-.3 1.128-.45 1.8-.45v2.646h-.666c-.792 0-1.392.186-1.8.558-.396.372-.594 1.02-.594 1.944V18h-2.52V8.028h2.52v1.548Zm13.667 3.222c0 .36-.023.684-.071.972h-7.29c.06.72.312 1.284.755 1.692.444.408.99.612 1.639.612.936 0 1.602-.402 1.998-1.206h2.718a4.588 4.588 0 0 1-1.657 2.376c-.816.612-1.818.918-3.006.918-.96 0-1.824-.21-2.592-.63a4.637 4.637 0 0 1-1.782-1.818c-.42-.78-.63-1.68-.63-2.7 0-1.032.21-1.938.63-2.718a4.396 4.396 0 0 1 1.764-1.8c.756-.42 1.627-.63 2.61-.63.948 0 1.794.204 2.538.612.757.408 1.339.99 1.747 1.746.42.744.63 1.602.63 2.574Zm-2.61-.72c-.011-.648-.245-1.164-.701-1.548-.457-.396-1.015-.594-1.675-.594-.623 0-1.151.192-1.584.576-.42.372-.678.894-.774 1.566h4.734Zm11.758-1.566v2.124h-7.632v-2.124h7.632Zm16.164-5.076V18h-2.52V9.828L83.446 18h-1.908l-3.384-8.172V18h-2.52V5.436h2.862l3.996 9.342 3.996-9.342h2.844Zm1.484 7.542c0-1.008.197-1.902.593-2.682.408-.78.954-1.38 1.638-1.8a4.41 4.41 0 0 1 2.323-.63c.743 0 1.391.15 1.944.45.564.3 1.014.678 1.35 1.134V8.028h2.537V18h-2.537v-1.458c-.325.468-.775.858-1.35 1.17-.564.3-1.218.45-1.962.45-.84 0-1.609-.216-2.305-.648-.683-.432-1.23-1.038-1.638-1.818-.396-.792-.594-1.698-.594-2.718Zm7.847.036c0-.612-.12-1.134-.36-1.566a2.463 2.463 0 0 0-.971-1.008 2.548 2.548 0 0 0-1.314-.36c-.469 0-.9.114-1.296.342-.396.228-.72.564-.972 1.008-.24.432-.36.948-.36 1.548 0 .6.12 1.128.36 1.584.251.444.576.786.972 1.026.407.24.84.36 1.296.36a2.65 2.65 0 0 0 1.314-.342c.408-.24.732-.576.972-1.008.24-.444.36-.972.36-1.584Zm7.16-3.438a3.567 3.567 0 0 1 1.26-1.242c.528-.3 1.128-.45 1.8-.45v2.646h-.666c-.792 0-1.392.186-1.8.558-.396.372-.594 1.02-.594 1.944V18h-2.52V8.028h2.52v1.548ZM116.124 18l-3.384-4.248V18h-2.52V4.68h2.52v7.578l3.348-4.23h3.276l-4.392 5.004L119.4 18h-3.276Zm13.518-5.202c0 .36-.024.684-.072.972h-7.29c.06.72.312 1.284.756 1.692.444.408.99.612 1.638.612.936 0 1.602-.402 1.998-1.206h2.718a4.588 4.588 0 0 1-1.656 2.376c-.816.612-1.818.918-3.006.918-.96 0-1.824-.21-2.592-.63a4.637 4.637 0 0 1-1.782-1.818c-.42-.78-.63-1.68-.63-2.7 0-1.032.21-1.938.63-2.718a4.396 4.396 0 0 1 1.764-1.8c.756-.42 1.626-.63 2.61-.63.948 0 1.794.204 2.538.612.756.408 1.338.99 1.746 1.746.42.744.63 1.602.63 2.574Zm-2.61-.72c-.012-.648-.246-1.164-.702-1.548-.456-.396-1.014-.594-1.674-.594-.624 0-1.152.192-1.584.576-.42.372-.678.894-.774 1.566h4.734Zm7.023-1.98v4.824c0 .336.078.582.234.738.168.144.444.216.828.216h1.17V18h-1.584c-2.124 0-3.186-1.032-3.186-3.096v-4.806h-1.188v-2.07h1.188V5.562h2.538v2.466h2.232v2.07h-2.232Zm16.776-.774c0 .672-.162 1.302-.486 1.89-.312.588-.81 1.062-1.494 1.422-.672.36-1.524.54-2.556.54h-2.106V18h-2.52V5.436h4.626c.972 0 1.8.168 2.484.504.684.336 1.194.798 1.53 1.386.348.588.522 1.254.522 1.998Zm-4.644 1.818c.696 0 1.212-.156 1.548-.468.336-.324.504-.774.504-1.35 0-1.224-.684-1.836-2.052-1.836h-1.998v3.654h1.998Zm15.487-3.114V18h-2.538v-1.26c-.324.432-.75.774-1.278 1.026-.516.24-1.08.36-1.692.36-.78 0-1.47-.162-2.07-.486a3.619 3.619 0 0 1-1.422-1.458c-.336-.648-.504-1.416-.504-2.304v-5.85h2.52v5.49c0 .792.198 1.404.594 1.836.396.42.936.63 1.62.63.696 0 1.242-.21 1.638-.63.396-.432.594-1.044.594-1.836v-5.49h2.538Zm4.646-3.348V18h-2.52V4.68h2.52Zm5.946 13.482c-.816 0-1.548-.144-2.196-.432-.648-.3-1.164-.702-1.548-1.206a3.069 3.069 0 0 1-.612-1.674h2.538c.048.384.234.702.558.954.336.252.75.378 1.242.378.48 0 .852-.096 1.116-.288.276-.192.414-.438.414-.738 0-.324-.168-.564-.504-.72-.324-.168-.846-.348-1.566-.54-.744-.18-1.356-.366-1.836-.558a3.263 3.263 0 0 1-1.224-.882c-.336-.396-.504-.93-.504-1.602 0-.552.156-1.056.468-1.512.324-.456.78-.816 1.368-1.08.6-.264 1.302-.396 2.106-.396 1.188 0 2.136.3 2.844.9.708.588 1.098 1.386 1.17 2.394h-2.412a1.265 1.265 0 0 0-.504-.936c-.288-.24-.678-.36-1.17-.36-.456 0-.81.084-1.062.252a.81.81 0 0 0-.36.702c0 .336.168.594.504.774.336.168.858.342 1.566.522.72.18 1.314.366 1.782.558.468.192.87.492 1.206.9.348.396.528.924.54 1.584 0 .576-.162 1.092-.486 1.548-.312.456-.768.816-1.368 1.08-.588.252-1.278.378-2.07.378Zm14.903-5.364c0 .36-.024.684-.072.972h-7.29c.06.72.312 1.284.756 1.692.444.408.99.612 1.638.612.936 0 1.602-.402 1.998-1.206h2.718a4.588 4.588 0 0 1-1.656 2.376c-.816.612-1.818.918-3.006.918-.96 0-1.824-.21-2.592-.63a4.637 4.637 0 0 1-1.782-1.818c-.42-.78-.63-1.68-.63-2.7 0-1.032.21-1.938.63-2.718a4.396 4.396 0 0 1 1.764-1.8c.756-.42 1.626-.63 2.61-.63.948 0 1.794.204 2.538.612.756.408 1.338.99 1.746 1.746.42.744.63 1.602.63 2.574Zm-2.61-.72c-.012-.648-.246-1.164-.702-1.548-.456-.396-1.014-.594-1.674-.594-.624 0-1.152.192-1.584.576-.42.372-.678.894-.774 1.566h4.734Z"/><g fill="#fff" clip-path="url(#a)"><path d="m9.517 4.245 5.29 9.225 1.873-2.798h7.328c-.662-6-5.764-10.664-11.963-10.664-6.2 0-11.3 4.657-11.97 10.657H4.68l4.83-6.42h.007Z"/><path d="M14.626 18.532 9.209 9.09l-3.19 4.245H.075v.052l-.082-.052V24l3.528-3.517A11.99 11.99 0 0 0 12.031 24c6.199 0 11.292-4.665 11.961-10.665h-5.898l-3.476 5.205.008-.008Z"/></g><defs><clipPath id="a"><path fill="#fff" d="M0 0h24v24H0z"/></clipPath></defs></svg>