<svg xmlns="http://www.w3.org/2000/svg" width="20" height="21" fill="none"><path fill="#475569" d="M20 3.625c0 .703-.586 1.367-1.523 1.875-1.133.664-2.813 1.094-4.766 1.21a1.445 1.445 0 0 1-.43-.194C11.72 5.89 9.687 5.5 7.5 5.5c-.352 0-.664.04-.977.04l-.039-.04C5.547 4.992 5 4.328 5 3.625 5 1.906 8.36.5 12.5.5 16.64.5 20 1.906 20 3.625ZM6.25 6.828c.39-.039.82-.078 1.25-.078 2.422 0 4.57.508 5.938 1.25C14.413 8.508 15 9.172 15 9.875c0 .156-.04.313-.117.469-.156.508-.664.976-1.367 1.406h-.04C12.11 12.531 9.923 13 7.5 13c-2.344 0-4.414-.43-5.82-1.133-.078-.039-.117-.078-.196-.117C.547 11.242 0 10.578 0 9.875c0-1.328 2.07-2.5 5-2.93.39-.039.82-.117 1.25-.117Zm10 3.047c0-.82-.43-1.523-.977-2.07a12.502 12.502 0 0 0 3.008-.782A8.305 8.305 0 0 0 20 6.008v1.367c0 .781-.664 1.484-1.719 1.992-.586.313-1.289.547-2.07.742 0-.078.039-.156.039-.195v-.039ZM15 13.625c0 .703-.586 1.367-1.523 1.875-.079.04-.118.078-.196.117-1.406.703-3.476 1.133-5.781 1.133-2.46 0-4.648-.469-6.016-1.25C.547 14.992 0 14.328 0 13.625v-1.367a7.13 7.13 0 0 0 1.68 1.015c1.562.625 3.593.977 5.82.977 2.188 0 4.219-.352 5.781-.977.274-.156.586-.273.86-.43.234-.155.468-.312.664-.468.078-.04.117-.078.195-.117v1.367Zm1.25 0v-2.227c.742-.195 1.406-.39 2.031-.625A8.305 8.305 0 0 0 20 9.758v1.367c0 .43-.195.82-.586 1.21-.664.665-1.758 1.173-3.203 1.524 0-.078.039-.156.039-.234ZM7.5 18c2.188 0 4.219-.352 5.781-.977A8.305 8.305 0 0 0 15 16.008v1.367c0 1.758-3.36 3.125-7.5 3.125-4.14 0-7.5-1.367-7.5-3.125v-1.367a7.13 7.13 0 0 0 1.68 1.015c1.562.625 3.593.977 5.82.977Z"/></svg>