<svg xmlns="http://www.w3.org/2000/svg" width="22" height="21" fill="none"><path fill="#475569" d="m7.094 15.54-1.211-1.212c-.313-.312-.43-.781-.274-1.25.118-.351.274-.781.43-1.328H1.938c-.352 0-.665-.156-.82-.469-.196-.273-.196-.625 0-.937l2.03-3.438C3.656 6.046 4.594 5.5 5.57 5.5h3.242c.079-.156.157-.273.274-.43C12.289.344 17.055.187 19.867.734c.469.079.82.43.899.899.547 2.812.39 7.578-4.336 10.781a2.636 2.636 0 0 1-.43.274v3.242c0 .976-.547 1.914-1.406 2.422l-3.438 2.03c-.312.196-.664.196-.937 0-.313-.155-.469-.468-.469-.82v-4.18l-1.406.47a1.16 1.16 0 0 1-1.25-.313ZM16 7.062a1.48 1.48 0 0 0 1.328-.782c.274-.468.274-1.054 0-1.562A1.56 1.56 0 0 0 16 3.937c-.586 0-1.094.313-1.367.782-.274.508-.274 1.093 0 1.562.273.508.781.782 1.367.782Z"/></svg>