<svg xmlns="http://www.w3.org/2000/svg" width="20" height="15" fill="none"><g clip-path="url(#a)"><path fill="#fff" d="M0 0h20v15H0z"/><path fill="#F7FCFF" fill-rule="evenodd" d="M0 0v15h20V0H0Z" clip-rule="evenodd"/><mask id="b" width="20" height="15" x="0" y="0" maskUnits="userSpaceOnUse" style="mask-type:luminance"><path fill="#fff" fill-rule="evenodd" d="M2 0a2 2 0 0 0-2 2v11a2 2 0 0 0 2 2h16a2 2 0 0 0 2-2V2a2 2 0 0 0-2-2H2Z" clip-rule="evenodd"/></mask><g mask="url(#b)"><path fill="#3D58DB" fill-rule="evenodd" d="M10 11.387c2.002 0 3.624-1.723 3.624-3.849 0-2.126-1.622-3.849-3.624-3.849S6.376 5.412 6.376 7.538c0 2.126 1.622 3.85 3.624 3.85Z" clip-rule="evenodd"/><mask id="c" width="8" height="9" x="6" y="3" maskUnits="userSpaceOnUse" style="mask-type:luminance"><path fill="#fff" fill-rule="evenodd" d="M10 11.387c2.002 0 3.624-1.723 3.624-3.849 0-2.126-1.622-3.849-3.624-3.849S6.376 5.412 6.376 7.538c0 2.126 1.622 3.85 3.624 3.85Z" clip-rule="evenodd"/></mask><g mask="url(#c)"><path fill="#E31D1C" fill-rule="evenodd" d="M13.751 7.833s-.203-1.815-1.71-1.914c-1.507-.098-1.913 1.331-2 1.71-.087.379-.307 1.39-1.893 1.39s-1.73-2.57-1.73-2.57V3.42h7.333v4.414Z" clip-rule="evenodd"/></g><path fill="#272727" fill-rule="evenodd" d="m4.562 1.282.572.518-2.65 3.095-.572-.518 2.65-3.095Zm.943.837.572.518-2.555 3.05-.572-.517 2.555-3.05Zm1.51 1.365-.57-.517L3.881 6.04l.572.517 2.562-3.073Zm8.837-2.418-.572.515.993 1.164.572-.515-.993-1.164Zm1.764 2.141-.572.516.992 1.164.572-.515-.992-1.165Zm-4.223.05.571-.514.993 1.164-.572.515-.992-1.164Zm2.335 1.627-.572.516.992 1.164.572-.515-.992-1.165Zm-1.356-2.49.572-.515 2.762 3.363-.572.515-2.762-3.363Zm1.912 6.508-.576-.517-1 1.168.576.518 1-1.17Zm-1.682 2.057-.577-.518-1 1.17.577.516 1-1.168Zm2.927-.939.577.518-1 1.168-.577-.517 1-1.169Zm-1.023 2.622-.577-.517-1 1.169.577.517 1-1.169Zm-1.527-1.406.577.517-1.044 1.248-.577-.517 1.044-1.248Zm2.29-1.562-.576-.518-1.045 1.249.577.517 1.044-1.248ZM4.004 9.306l.572-.516 2.553 2.926-.572.515-2.553-2.925Zm.596 2.559.572-.516 1.078 1.184-.572.516L4.6 11.865Zm-1.907-1.433-.572.515 2.567 2.965.572-.516-2.567-2.964Zm.407-.337.572-.516.935 1.096-.572.516-.935-1.096Z" clip-rule="evenodd"/></g></g><defs><clipPath id="a"><path fill="#fff" d="M0 0h20v15H0z"/></clipPath></defs></svg>