<svg xmlns="http://www.w3.org/2000/svg" width="20" height="19" fill="none"><path fill="#475569" d="M3.75 3.25c0-1.367 1.094-2.5 2.5-2.5H17.5c1.367 0 2.5 1.133 2.5 2.5v12.5c0 1.406-1.133 2.5-2.5 2.5H3.125C1.367 18.25 0 16.883 0 15.125V4.5c0-.664.547-1.25 1.25-1.25.664 0 1.25.586 1.25 1.25v10.625c0 .352.273.625.625.625a.642.642 0 0 0 .625-.625V3.25Zm2.5.938v3.125c0 .546.39.937.938.937h4.375c.507 0 .937-.39.937-.938V4.188a.95.95 0 0 0-.938-.937H7.189a.925.925 0 0 0-.938.938Zm8.125-.313c0 .352.273.625.625.625h1.875a.642.642 0 0 0 .625-.625c0-.313-.313-.625-.625-.625H15a.642.642 0 0 0-.625.625Zm0 3.75c0 .352.273.625.625.625h1.875a.642.642 0 0 0 .625-.625c0-.313-.313-.625-.625-.625H15a.642.642 0 0 0-.625.625Zm-8.125 3.75c0 .352.273.625.625.625h10a.642.642 0 0 0 .625-.625c0-.313-.313-.625-.625-.625h-10a.642.642 0 0 0-.625.625Zm0 3.75c0 .352.273.625.625.625h10a.642.642 0 0 0 .625-.625c0-.313-.313-.625-.625-.625h-10a.642.642 0 0 0-.625.625Z"/></svg>