<svg xmlns="http://www.w3.org/2000/svg" width="18" height="13" fill="none"><path fill="#475569" d="M.25 4.938A4.676 4.676 0 0 1 4.938.25h.312C5.914.25 6.5.836 6.5 1.5c0 .703-.586 1.25-1.25 1.25h-.313c-1.21 0-2.187 1.016-2.187 2.188v.312h2.5c1.367 0 2.5 1.133 2.5 2.5v2.5c0 1.406-1.133 2.5-2.5 2.5h-2.5a2.468 2.468 0 0 1-2.5-2.5V4.937Zm10 0A4.676 4.676 0 0 1 14.938.25h.312c.664 0 1.25.586 1.25 1.25 0 .703-.586 1.25-1.25 1.25h-.313c-1.21 0-2.187 1.016-2.187 2.188v.312h2.5c1.367 0 2.5 1.133 2.5 2.5v2.5c0 1.406-1.133 2.5-2.5 2.5h-2.5a2.468 2.468 0 0 1-2.5-2.5V4.937Z"/></svg>