<svg xmlns="http://www.w3.org/2000/svg" width="24" height="24" fill="none"><path fill="url(#a)" fill-rule="evenodd" d="M16.913 24H7.087A7.087 7.087 0 0 1 0 16.913V7.087A7.087 7.087 0 0 1 7.087 0h9.826A7.087 7.087 0 0 1 24 7.087v9.826A7.087 7.087 0 0 1 16.913 24Z" clip-rule="evenodd"/><path fill="url(#b)" d="M16.88.22H7.113A6.893 6.893 0 0 0 .22 7.114v9.766a6.893 6.893 0 0 0 6.893 6.893h9.767a6.893 6.893 0 0 0 6.893-6.893V7.114A6.893 6.893 0 0 0 16.88.22Z"/><path fill="url(#c)" d="M16.86.447H7.147c-3.7 0-6.7 3-6.7 6.7v9.713c0 3.7 3 6.7 6.7 6.7h9.713c3.7 0 6.7-3 6.7-6.7V7.147c0-3.7-3-6.7-6.7-6.7Z"/><path fill="url(#d)" d="M16.833.667H7.167a6.5 6.5 0 0 0-6.5 6.5v9.666a6.5 6.5 0 0 0 6.5 6.5h9.666a6.5 6.5 0 0 0 6.5-6.5V7.167a6.5 6.5 0 0 0-6.5-6.5Z"/><path fill="url(#e)" d="M16.8.887H7.194A6.307 6.307 0 0 0 .887 7.194V16.8a6.307 6.307 0 0 0 6.307 6.307H16.8a6.307 6.307 0 0 0 6.307-6.307V7.194A6.307 6.307 0 0 0 16.8.887Z"/><path fill="url(#f)" d="M16.78 1.113H7.227a6.113 6.113 0 0 0-6.114 6.114v9.553a6.113 6.113 0 0 0 6.114 6.113h9.553a6.113 6.113 0 0 0 6.113-6.113V7.227a6.113 6.113 0 0 0-6.113-6.114Z"/><path fill="url(#g)" d="M16.747 1.333H7.253a5.92 5.92 0 0 0-5.92 5.92v9.494a5.92 5.92 0 0 0 5.92 5.92h9.494a5.92 5.92 0 0 0 5.92-5.92V7.253a5.92 5.92 0 0 0-5.92-5.92Z"/><path fill="url(#h)" d="M16.72 1.553H7.274a5.72 5.72 0 0 0-5.72 5.72v9.447a5.72 5.72 0 0 0 5.72 5.72h9.446a5.72 5.72 0 0 0 5.72-5.72V7.273a5.72 5.72 0 0 0-5.72-5.72Z"/><path fill="url(#i)" d="M16.7 1.78H7.307A5.527 5.527 0 0 0 1.78 7.307V16.7a5.527 5.527 0 0 0 5.527 5.527H16.7a5.527 5.527 0 0 0 5.527-5.527V7.307A5.527 5.527 0 0 0 16.7 1.78Z"/><path fill="url(#j)" d="M16.667 2H7.333A5.333 5.333 0 0 0 2 7.334v9.333A5.333 5.333 0 0 0 7.333 22h9.334A5.333 5.333 0 0 0 22 16.667V7.334A5.333 5.333 0 0 0 16.667 2Z"/><path fill="url(#k)" fill-rule="evenodd" d="M8 4C5.76 4 4 5.76 4 8v8c0 2.24 1.76 4 4 4h8c2.24 0 4-1.76 4-4V8c0-2.24-1.76-4-4-4H8Zm8 17.334H8c-2.993 0-5.333-2.34-5.333-5.334V8c0-2.993 2.34-5.333 5.333-5.333h8c2.994 0 5.334 2.34 5.334 5.333v8c0 2.994-2.34 5.334-5.334 5.334Z" clip-rule="evenodd"/><path fill="url(#l)" fill-rule="evenodd" d="M8 3.934C5.72 3.934 3.934 5.72 3.934 8v8c0 2.28 1.786 4.067 4.066 4.067h8A4.024 4.024 0 0 0 20.067 16V8c0-2.28-1.787-4.066-4.067-4.066H8Zm8 17.333H8c-2.953 0-5.266-2.313-5.266-5.267V8c0-2.953 2.313-5.266 5.266-5.266h8c2.953 0 5.267 2.313 5.267 5.266v8c0 2.954-2.314 5.267-5.267 5.267Z" clip-rule="evenodd"/><path fill="url(#m)" fill-rule="evenodd" d="M8 3.86C5.68 3.86 3.86 5.68 3.86 8v8c0 2.32 1.82 4.14 4.14 4.14h8c2.32 0 4.14-1.82 4.14-4.14V8c0-2.32-1.82-4.14-4.14-4.14H8Zm8 17.334H8c-2.913 0-5.193-2.28-5.193-5.194V8c0-2.913 2.28-5.193 5.193-5.193h8c2.913 0 5.193 2.28 5.193 5.193v8c0 2.914-2.28 5.194-5.193 5.194Z" clip-rule="evenodd"/><path fill="url(#n)" fill-rule="evenodd" d="M8 3.794C5.64 3.794 3.793 5.64 3.793 8v8c0 2.36 1.847 4.207 4.207 4.207h8c2.36 0 4.207-1.847 4.207-4.207V8c0-2.36-1.847-4.206-4.207-4.206H8Zm8 17.333H8c-2.873 0-5.127-2.253-5.127-5.127V8c0-2.873 2.254-5.126 5.127-5.126h8c2.873 0 5.127 2.253 5.127 5.126v8c0 2.873-2.254 5.127-5.127 5.127Z" clip-rule="evenodd"/><path fill="url(#o)" fill-rule="evenodd" d="M8 3.72C5.6 3.72 3.72 5.6 3.72 8v8c0 2.4 1.88 4.28 4.28 4.28h8c2.4 0 4.28-1.88 4.28-4.28V8c0-2.4-1.88-4.28-4.28-4.28H8Zm8 17.333H8c-2.833 0-5.053-2.22-5.053-5.053V8c0-2.833 2.22-5.053 5.053-5.053h8c2.833 0 5.053 2.22 5.053 5.053v8c0 2.833-2.22 5.053-5.053 5.053Z" clip-rule="evenodd"/><path fill="url(#p)" fill-rule="evenodd" d="M8 3.654C5.56 3.654 3.654 5.56 3.654 8v8c0 2.44 1.906 4.347 4.346 4.347h8c2.44 0 4.347-1.907 4.347-4.347V8c0-2.44-1.907-4.346-4.347-4.346H8Zm8 17.333H8c-2.793 0-4.986-2.187-4.986-4.987V8c0-2.793 2.193-4.986 4.986-4.986h8c2.794 0 4.987 2.186 4.987 4.986v8c0 2.794-2.193 4.987-4.987 4.987Z" clip-rule="evenodd"/><path fill="url(#q)" fill-rule="evenodd" d="M8 3.587c-2.473 0-4.413 1.94-4.413 4.413v8c0 2.473 1.94 4.413 4.413 4.413h8c2.473 0 4.413-1.94 4.413-4.413V8c0-2.473-1.94-4.413-4.413-4.413H8Zm8 17.333H8c-2.76 0-4.92-2.16-4.92-4.92V8c0-2.76 2.16-4.92 4.92-4.92h8c2.76 0 4.92 2.16 4.92 4.92v8c0 2.76-2.16 4.92-4.92 4.92Z" clip-rule="evenodd"/><path fill="url(#r)" fill-rule="evenodd" d="M12 8.667A3.335 3.335 0 1 0 15.333 12 3.335 3.335 0 0 0 12 8.667Zm0 8A4.672 4.672 0 0 1 7.333 12 4.672 4.672 0 0 1 12 7.333 4.672 4.672 0 0 1 16.667 12 4.672 4.672 0 0 1 12 16.667Z" clip-rule="evenodd"/><path fill="url(#s)" fill-rule="evenodd" d="M12 8.6A3.406 3.406 0 0 0 8.6 12c0 1.873 1.527 3.4 3.4 3.4s3.4-1.527 3.4-3.4-1.527-3.4-3.4-3.4Zm0 8c-2.533 0-4.6-2.06-4.6-4.6a4.6 4.6 0 1 1 4.6 4.6Z" clip-rule="evenodd"/><path fill="url(#t)" fill-rule="evenodd" d="M12 8.526A3.48 3.48 0 0 0 8.526 12 3.48 3.48 0 0 0 12 15.473 3.48 3.48 0 0 0 15.473 12 3.48 3.48 0 0 0 12 8.526Zm0 8A4.535 4.535 0 0 1 7.473 12 4.535 4.535 0 0 1 12 7.473 4.535 4.535 0 0 1 16.526 12 4.535 4.535 0 0 1 12 16.526Z" clip-rule="evenodd"/><path fill="url(#u)" fill-rule="evenodd" d="M12 8.46A3.542 3.542 0 0 0 8.46 12 3.542 3.542 0 0 0 12 15.54 3.542 3.542 0 0 0 15.54 12 3.542 3.542 0 0 0 12 8.46Zm0 8c-2.46 0-4.46-2-4.46-4.46s2-4.46 4.46-4.46 4.46 2 4.46 4.46-2 4.46-4.46 4.46Z" clip-rule="evenodd"/><path fill="url(#v)" fill-rule="evenodd" d="M12 8.387A3.616 3.616 0 0 0 8.387 12 3.616 3.616 0 0 0 12 15.613 3.616 3.616 0 0 0 15.613 12 3.616 3.616 0 0 0 12 8.387Zm0 8A4.39 4.39 0 0 1 7.613 12 4.39 4.39 0 0 1 12 7.613 4.39 4.39 0 0 1 16.387 12 4.39 4.39 0 0 1 12 16.387Z" clip-rule="evenodd"/><path fill="url(#w)" fill-rule="evenodd" d="M12 8.32A3.687 3.687 0 0 0 8.32 12 3.687 3.687 0 0 0 12 15.68 3.687 3.687 0 0 0 15.68 12 3.687 3.687 0 0 0 12 8.32Zm0 8c-2.38 0-4.32-1.94-4.32-4.32 0-2.38 1.94-4.32 4.32-4.32 2.38 0 4.32 1.94 4.32 4.32 0 2.38-1.94 4.32-4.32 4.32Z" clip-rule="evenodd"/><path fill="url(#x)" fill-rule="evenodd" d="M12 8.254A3.75 3.75 0 0 0 8.254 12 3.75 3.75 0 0 0 12 15.747 3.75 3.75 0 0 0 15.747 12 3.75 3.75 0 0 0 12 8.254Zm0 8A4.256 4.256 0 0 1 7.747 12 4.256 4.256 0 0 1 12 7.747 4.256 4.256 0 0 1 16.253 12 4.256 4.256 0 0 1 12 16.254Z" clip-rule="evenodd"/><defs><linearGradient id="k" x1="11.927" x2="12.06" y1="22.807" y2="3.214" gradientUnits="userSpaceOnUse"><stop stop-color="#FFFEFC"/><stop offset=".18" stop-color="#FFFDF9"/><stop offset=".36" stop-color="#FFF9F7"/><stop offset=".55" stop-color="#FFF5F9"/><stop offset=".71" stop-color="#FDF6F9"/><stop offset=".86" stop-color="#F9F5FE"/><stop offset="1" stop-color="#F8F7FF"/></linearGradient><linearGradient id="l" x1="11.927" x2="12.06" y1="22.814" y2="3.207" gradientUnits="userSpaceOnUse"><stop stop-color="#FFFEFA"/><stop offset=".18" stop-color="#FFFCF5"/><stop offset=".36" stop-color="#FFF5F2"/><stop offset=".55" stop-color="#FFEFF5"/><stop offset=".71" stop-color="#FCF1F5"/><stop offset=".86" stop-color="#F6EFFD"/><stop offset="1" stop-color="#F4F2FF"/></linearGradient><linearGradient id="m" x1="11.927" x2="12.06" y1="22.814" y2="3.207" gradientUnits="userSpaceOnUse"><stop stop-color="#FFFDF9"/><stop offset=".18" stop-color="#FFFBF1"/><stop offset=".36" stop-color="#FFF2ED"/><stop offset=".55" stop-color="#FEEAF2"/><stop offset=".71" stop-color="#FAECF2"/><stop offset=".86" stop-color="#F2EAFD"/><stop offset="1" stop-color="#F0EEFE"/></linearGradient><linearGradient id="n" x1="11.927" x2="12.06" y1="22.814" y2="3.207" gradientUnits="userSpaceOnUse"><stop stop-color="#FFFDF7"/><stop offset=".18" stop-color="#FFFBEE"/><stop offset=".36" stop-color="#FFEEE9"/><stop offset=".55" stop-color="#FEE5EE"/><stop offset=".71" stop-color="#F9E7EF"/><stop offset=".86" stop-color="#EFE5FD"/><stop offset="1" stop-color="#EDE9FE"/></linearGradient><linearGradient id="o" x1="11.927" x2="12.06" y1="22.813" y2="3.207" gradientUnits="userSpaceOnUse"><stop stop-color="#FFFDF5"/><stop offset=".18" stop-color="#FFFAEA"/><stop offset=".36" stop-color="#FFEAE4"/><stop offset=".55" stop-color="#FEDFEA"/><stop offset=".71" stop-color="#F8E2EB"/><stop offset=".86" stop-color="#ECDFFC"/><stop offset="1" stop-color="#E9E4FE"/></linearGradient><linearGradient id="p" x1="11.927" x2="12.06" y1="22.814" y2="3.207" gradientUnits="userSpaceOnUse"><stop stop-color="#FFFCF4"/><stop offset=".18" stop-color="#FFF9E6"/><stop offset=".36" stop-color="#FFE7DF"/><stop offset=".55" stop-color="#FDDAE7"/><stop offset=".71" stop-color="#F6DDE8"/><stop offset=".86" stop-color="#E8DAFC"/><stop offset="1" stop-color="#E5E0FD"/></linearGradient><linearGradient id="q" x1="11.927" x2="12.06" y1="22.807" y2="3.213" gradientUnits="userSpaceOnUse"><stop stop-color="#FFFCF2"/><stop offset=".18" stop-color="#FFF8E2"/><stop offset=".36" stop-color="#FFE3DA"/><stop offset=".55" stop-color="#FDD4E3"/><stop offset=".71" stop-color="#F5D8E4"/><stop offset=".86" stop-color="#E5D4FB"/><stop offset="1" stop-color="#E1DBFD"/></linearGradient><linearGradient id="r" x1="11.927" x2="12.1" y1="18.207" y2="3.987" gradientUnits="userSpaceOnUse"><stop stop-color="#FFFFFE"/><stop offset=".18" stop-color="#FFFEFC"/><stop offset=".36" stop-color="#FFFCFB"/><stop offset=".55" stop-color="#FFFAFC"/><stop offset=".71" stop-color="#FEFBFC"/><stop offset=".86" stop-color="#FCFAFF"/><stop offset="1" stop-color="#FCFBFF"/></linearGradient><linearGradient id="s" x1="11.927" x2="12.1" y1="18.213" y2="3.98" gradientUnits="userSpaceOnUse"><stop stop-color="#FFFEFC"/><stop offset=".18" stop-color="#FFFDF8"/><stop offset=".36" stop-color="#FFF8F5"/><stop offset=".55" stop-color="#FFF4F8"/><stop offset=".71" stop-color="#FCF5F8"/><stop offset=".86" stop-color="#F8F4FE"/><stop offset="1" stop-color="#F7F6FF"/></linearGradient><linearGradient id="t" x1="11.927" x2="12.1" y1="18.22" y2="3.973" gradientUnits="userSpaceOnUse"><stop stop-color="#FFFEFA"/><stop offset=".18" stop-color="#FFFCF3"/><stop offset=".36" stop-color="#FFF4F0"/><stop offset=".55" stop-color="#FEEDF4"/><stop offset=".71" stop-color="#FBEFF4"/><stop offset=".86" stop-color="#F4EDFE"/><stop offset="1" stop-color="#F3F0FE"/></linearGradient><linearGradient id="u" x1="11.927" x2="12.1" y1="18.22" y2="3.973" gradientUnits="userSpaceOnUse"><stop stop-color="#FFFEF8"/><stop offset=".18" stop-color="#FFFBEF"/><stop offset=".36" stop-color="#FFF0EB"/><stop offset=".55" stop-color="#FEE7F0"/><stop offset=".71" stop-color="#FAEAF0"/><stop offset=".86" stop-color="#F1E7FD"/><stop offset="1" stop-color="#EFEBFE"/></linearGradient><linearGradient id="v" x1="11.927" x2="12.1" y1="18.22" y2="3.973" gradientUnits="userSpaceOnUse"><stop stop-color="#FFFDF6"/><stop offset=".18" stop-color="#FFFAEB"/><stop offset=".36" stop-color="#FFEBE5"/><stop offset=".55" stop-color="#FEE1EB"/><stop offset=".71" stop-color="#F8E4EC"/><stop offset=".86" stop-color="#EDE1FC"/><stop offset="1" stop-color="#EAE6FE"/></linearGradient><linearGradient id="w" x1="11.927" x2="12.1" y1="18.213" y2="3.98" gradientUnits="userSpaceOnUse"><stop stop-color="#FFFDF4"/><stop offset=".18" stop-color="#FFF9E6"/><stop offset=".36" stop-color="#FFE7E0"/><stop offset=".55" stop-color="#FDDAE7"/><stop offset=".71" stop-color="#F7DEE8"/><stop offset=".86" stop-color="#E9DAFC"/><stop offset="1" stop-color="#E6E0FD"/></linearGradient><linearGradient id="x" x1="11.927" x2="12.1" y1="18.207" y2="3.987" gradientUnits="userSpaceOnUse"><stop stop-color="#FFFCF2"/><stop offset=".18" stop-color="#FFF8E2"/><stop offset=".36" stop-color="#FFE3DA"/><stop offset=".55" stop-color="#FDD4E3"/><stop offset=".71" stop-color="#F5D8E4"/><stop offset=".86" stop-color="#E5D4FB"/><stop offset="1" stop-color="#E1DBFD"/></linearGradient><radialGradient id="a" cx="0" cy="0" r="1" gradientTransform="translate(10.633 21.78) scale(23.56)" gradientUnits="userSpaceOnUse"><stop stop-color="#FFF9E6"/><stop offset=".18" stop-color="#FFF1C4"/><stop offset=".36" stop-color="#FFC7B5"/><stop offset=".55" stop-color="#FCAAC7"/><stop offset=".71" stop-color="#EBB2C8"/><stop offset=".86" stop-color="#CBAAF8"/><stop offset="1" stop-color="#C2B7FB"/></radialGradient><radialGradient id="b" cx="0" cy="0" r="1" gradientTransform="translate(10.567 21.86) scale(23.7533)" gradientUnits="userSpaceOnUse"><stop stop-color="#FFF8E0"/><stop offset=".18" stop-color="#FFEEB7"/><stop offset=".36" stop-color="#FFBBA5"/><stop offset=".55" stop-color="#FB97BB"/><stop offset=".71" stop-color="#E6A1BC"/><stop offset=".86" stop-color="#BF97F6"/><stop offset="1" stop-color="#B5A7FA"/></radialGradient><radialGradient id="c" cx="0" cy="0" r="1" gradientTransform="translate(10.507 21.92) scale(23.9333)" gradientUnits="userSpaceOnUse"><stop stop-color="#FFF6DB"/><stop offset=".18" stop-color="#FFEBAA"/><stop offset=".36" stop-color="#FFAE94"/><stop offset=".55" stop-color="#FA84AE"/><stop offset=".71" stop-color="#E290B0"/><stop offset=".86" stop-color="#B484F5"/><stop offset="1" stop-color="#A797F9"/></radialGradient><radialGradient id="d" cx="0" cy="0" r="1" gradientTransform="translate(10.447 21.98) scale(24.1067)" gradientUnits="userSpaceOnUse"><stop stop-color="#FFF5D5"/><stop offset=".18" stop-color="#FFE89D"/><stop offset=".36" stop-color="#FFA284"/><stop offset=".55" stop-color="#FA71A2"/><stop offset=".71" stop-color="#DD7FA4"/><stop offset=".86" stop-color="#A871F3"/><stop offset="1" stop-color="#9A87F9"/></radialGradient><radialGradient id="e" cx="0" cy="0" r="1" gradientTransform="translate(10.393 22.027) scale(24.2667)" gradientUnits="userSpaceOnUse"><stop stop-color="#FFF3CF"/><stop offset=".18" stop-color="#FFE590"/><stop offset=".36" stop-color="#FF9574"/><stop offset=".55" stop-color="#F95E95"/><stop offset=".71" stop-color="#D96E98"/><stop offset=".86" stop-color="#9C5EF2"/><stop offset="1" stop-color="#8C77F8"/></radialGradient><radialGradient id="f" cx="0" cy="0" r="1" gradientTransform="translate(10.34 22.06) scale(24.4133)" gradientUnits="userSpaceOnUse"><stop stop-color="#FFF2CA"/><stop offset=".18" stop-color="#FFE183"/><stop offset=".36" stop-color="#FF8963"/><stop offset=".55" stop-color="#F84C89"/><stop offset=".71" stop-color="#D45C8B"/><stop offset=".86" stop-color="#914CF0"/><stop offset="1" stop-color="#7F68F7"/></radialGradient><radialGradient id="g" cx="0" cy="0" r="1" gradientTransform="translate(10.293 22.087) scale(24.5533)" gradientUnits="userSpaceOnUse"><stop stop-color="#FFF0C4"/><stop offset=".18" stop-color="#FFDE76"/><stop offset=".36" stop-color="#FF7C53"/><stop offset=".55" stop-color="#F7397C"/><stop offset=".71" stop-color="#D04B7F"/><stop offset=".86" stop-color="#8539EF"/><stop offset="1" stop-color="#7158F6"/></radialGradient><radialGradient id="h" cx="0" cy="0" r="1" gradientTransform="translate(10.254 22.107) scale(24.68)" gradientUnits="userSpaceOnUse"><stop stop-color="#FFEFBE"/><stop offset=".18" stop-color="#FFDB69"/><stop offset=".36" stop-color="#FF7043"/><stop offset=".55" stop-color="#F72670"/><stop offset=".71" stop-color="#CB3A73"/><stop offset=".86" stop-color="#7926ED"/><stop offset="1" stop-color="#6448F6"/></radialGradient><radialGradient id="i" cx="0" cy="0" r="1" gradientTransform="translate(10.213 22.113) scale(24.7933)" gradientUnits="userSpaceOnUse"><stop stop-color="#FFEDB9"/><stop offset=".18" stop-color="#FFD85C"/><stop offset=".36" stop-color="#FF6332"/><stop offset=".55" stop-color="#F61363"/><stop offset=".71" stop-color="#C72967"/><stop offset=".86" stop-color="#6E13EC"/><stop offset="1" stop-color="#5638F5"/></radialGradient><radialGradient id="j" cx="0" cy="0" r="1" gradientTransform="translate(10.174 22.107) scale(24.8933)" gradientUnits="userSpaceOnUse"><stop stop-color="#FFECB3"/><stop offset=".18" stop-color="#FFD54F"/><stop offset=".36" stop-color="#FF5722"/><stop offset=".55" stop-color="#F50057"/><stop offset=".71" stop-color="#C2185B"/><stop offset=".86" stop-color="#6200EA"/><stop offset="1" stop-color="#4928F4"/></radialGradient></defs></svg>