<svg xmlns="http://www.w3.org/2000/svg" width="64" height="64" fill="none"><circle cx="32" cy="32" r="32" fill="#007696"/><path fill="#fff" d="M22 20c0-1.063.875-2 2-2h16c1.063 0 2 .938 2 2 0 1.125-.938 2-2 2h-3.563a9.153 9.153 0 0 1 1.313 3H40c1.063 0 2 .938 2 2 0 1.125-.938 2-2 2h-2.25c-.813 3.688-3.875 6.5-7.625 6.938l9 6.437c.875.688 1.125 1.938.5 2.813-.688.874-1.938 1.124-2.813.437l-14-10a1.99 1.99 0 0 1-.75-2.188C22.313 32.563 23.125 32 24 32h5c2 0 3.813-1.188 4.563-3H24c-1.125 0-2-.875-2-2 0-1.063.875-2 2-2h9.563C32.813 23.25 31 22 29 22h-5c-1.125 0-2-.875-2-2Z"/></svg>