<svg xmlns="http://www.w3.org/2000/svg" width="32" height="32" fill="none"><g clip-path="url(#a)"><path fill="url(#b)" d="m12.69 5.66 7.052 12.3 2.497-3.73h9.771C31.127 6.23 24.326.01 16.06.01 7.794.01.993 6.22.1 14.22h6.14l6.44-8.56h.01Z"/><path fill="url(#c)" d="m19.501 24.71-7.223-12.59-4.253 5.66H.1v.07l-.11-.07V32l4.705-4.69A15.986 15.986 0 0 0 16.04 32c8.266 0 15.057-6.22 15.95-14.22h-7.865l-4.634 6.94.01-.01Z"/></g><defs><linearGradient id="b" x1=".1" x2="60.667" y1="8.98" y2="8" gradientUnits="userSpaceOnUse"><stop stop-color="#007696"/><stop offset=".13" stop-color="#009C94"/><stop offset=".15" stop-color="#0EA68D"/><stop offset=".29" stop-color="#28B982"/><stop offset=".435" stop-color="#3EC979"/><stop offset=".615" stop-color="#4FD671"/><stop offset=".735" stop-color="#5BDE6C"/><stop offset=".895" stop-color="#62E369"/><stop offset="1" stop-color="#64E569"/></linearGradient><linearGradient id="c" x1="-.01" x2="31.98" y1="22.054" y2="22.054" gradientUnits="userSpaceOnUse"><stop stop-color="#007696"/><stop offset=".13" stop-color="#009C94"/><stop offset=".15" stop-color="#0EA68D"/><stop offset=".29" stop-color="#28B982"/><stop offset=".435" stop-color="#3EC979"/><stop offset=".615" stop-color="#4FD671"/><stop offset=".735" stop-color="#5BDE6C"/><stop offset=".895" stop-color="#62E369"/><stop offset="1" stop-color="#64E569"/></linearGradient><clipPath id="a"><path fill="#fff" d="M0 0h32v32H0z"/></clipPath></defs></svg>