<svg xmlns="http://www.w3.org/2000/svg" width="20" height="17" fill="none"><path fill="#475569" d="M1.563.375h1.875a.95.95 0 0 1 .937.938v1.875c0 .546-.43.937-.938.937H1.563c-.547 0-.938-.39-.938-.938V1.313c0-.508.39-.938.938-.938ZM7.5 1h11.25c.664 0 1.25.586 1.25 1.25 0 .703-.586 1.25-1.25 1.25H7.5c-.703 0-1.25-.547-1.25-1.25C6.25 1.586 6.797 1 7.5 1Zm0 6.25h11.25c.664 0 1.25.586 1.25 1.25 0 .703-.586 1.25-1.25 1.25H7.5c-.703 0-1.25-.547-1.25-1.25 0-.664.547-1.25 1.25-1.25Zm0 6.25h11.25c.664 0 1.25.586 1.25 1.25 0 .703-.586 1.25-1.25 1.25H7.5c-.703 0-1.25-.547-1.25-1.25 0-.664.547-1.25 1.25-1.25ZM.625 7.562c0-.507.39-.937.938-.937h1.875a.95.95 0 0 1 .937.938v1.875c0 .546-.43.937-.938.937H1.563c-.547 0-.938-.39-.938-.938V7.563Zm.938 5.313h1.875a.95.95 0 0 1 .937.938v1.874c0 .547-.43.938-.938.938H1.563c-.547 0-.938-.39-.938-.938v-1.874c0-.508.39-.938.938-.938Z"/></svg>