<svg xmlns="http://www.w3.org/2000/svg" width="150" height="70" fill="none"><path fill="url(#a)" d="M5.303 56.863c.549 1.37 1.137 4.54 2.814 4.84 2.264.404 2.108-2.06 2.019-3.64-.175-3.109-2.432-7.505-1.647-10.408 18.75 14.924 41.425 22.625 65.373 21.67 23.82-.95 49.949-9.748 64.852-29.455 7.294-9.646 11.919-21.231 10.474-33.568-.124-1.059-.495-6.32-2.423-5.328-1.004.517-.462 7.268-.553 8.488-.47 6.34-2.014 12.238-4.808 17.928-9.518 19.386-30.551 30.947-50.921 34.976-13.494 2.669-27.888 2.36-41.37-.685-6.96-1.572-13.917-3.847-20.307-7.08-5.39-2.726-14.359-7.002-17.762-12.242 5.279-1.241 11.96 2.65 17.413 2.192 2.889-.242 5.33-2.686 2.37-4.897-2.4-1.793-7.676-1.422-10.555-1.747-3.212-.362-6.418-.618-9.65-.677-2.37-.044-7.438-1.128-9.247.606-3.199 3.065 2.636 15.471 3.928 19.027-.539-1.484.573 1.431 0 0Z"/><defs><linearGradient id="a" x1="3.802" x2="117.802" y1="39.518" y2="39.518" gradientUnits="userSpaceOnUse"><stop stop-color="#ADEE68"/><stop offset="1" stop-color="#ADEE68" stop-opacity="0"/></linearGradient></defs></svg>