<svg xmlns="http://www.w3.org/2000/svg" width="20" height="15" fill="none"><g clip-path="url(#a)"><path fill="#fff" d="M0 0h20v15H0z"/><path fill="#EA1A1A" fill-rule="evenodd" d="M2 0a2 2 0 0 0-2 2v11a2 2 0 0 0 2 2h16a2 2 0 0 0 2-2V2a2 2 0 0 0-2-2H2Z" clip-rule="evenodd"/><mask id="b" width="20" height="15" x="0" y="0" maskUnits="userSpaceOnUse" style="mask-type:luminance"><path fill="#fff" fill-rule="evenodd" d="M3 0a3 3 0 0 0-3 3v9a3 3 0 0 0 3 3h14a3 3 0 0 0 3-3V3a3 3 0 0 0-3-3H3Z" clip-rule="evenodd"/></mask><g mask="url(#b)"><g filter="url(#c)"><path fill="#fff" fill-rule="evenodd" d="M9.918 7.234s-3.618-3.227.7-5.107c0 0 1.256 1.385.314 2.94-.31.51-.57.875-.766 1.149-.401.56-.53.741-.248 1.018Zm-5.34-2.317c-.249 4.703 4.256 2.91 4.256 2.91-.374.129-.478-.068-.8-.677a16.823 16.823 0 0 0-.685-1.199c-.97-1.538-2.771-1.034-2.771-1.034Zm6.82 2.475s4.646 1.39 1.53 4.923c0 0-1.724-.723-1.53-2.531.065-.593.146-1.033.208-1.364.126-.678.167-.897-.207-1.028Zm-1.22 1.084s.833 4.776-3.72 3.57c0 0-.123-1.866 1.58-2.5.56-.209.99-.332 1.314-.425.662-.19.876-.252.826-.645Zm5.746-2.054c-2.847-3.751-5.128.527-5.128.527.202-.34.409-.257 1.048 0 .312.126.728.293 1.297.473 1.734.548 2.783-1 2.783-1Z" clip-rule="evenodd"/></g><path stroke="#EA1A1A" stroke-width=".625" d="M6.35 6.38s.91 1.432 2.4 1.432m1.163-3.406s-.817 1.507-.117 2.823m4.023-1.128s-1.907-.289-2.904.818m1.79 2.671s-.38-1.89-1.762-2.448m-2.235 3.475s1.646-1.004 1.698-2.493"/></g></g><defs><clipPath id="a"><path fill="#fff" d="M0 0h20v15H0z"/></clipPath><filter id="c" width="13.356" height="12.188" x="3.568" y="1.127" color-interpolation-filters="sRGB" filterUnits="userSpaceOnUse"><feFlood flood-opacity="0" result="BackgroundImageFix"/><feColorMatrix in="SourceAlpha" result="hardAlpha" values="0 0 0 0 0 0 0 0 0 0 0 0 0 0 0 0 0 0 127 0"/><feOffset/><feGaussianBlur stdDeviation=".5"/><feColorMatrix values="0 0 0 0 0.6 0 0 0 0 0 0 0 0 0 0 0 0 0 0.36 0"/><feBlend in2="BackgroundImageFix" result="effect1_dropShadow_226_541"/><feBlend in="SourceGraphic" in2="effect1_dropShadow_226_541" result="shape"/></filter></defs></svg>