<svg xmlns="http://www.w3.org/2000/svg" width="26" height="24" fill="none"><path fill="url(#a)" d="M13 0c4.266 0 8.203 2.297 10.36 6 2.156 3.75 2.156 8.297 0 12A11.91 11.91 0 0 1 13 24c-4.313 0-8.25-2.25-10.406-6-2.156-3.703-2.156-8.25 0-12C4.75 2.297 8.688 0 13 0Zm-1.125 5.625V12c0 .375.188.75.469.938l4.5 3c.515.374 1.218.234 1.593-.282.329-.515.188-1.219-.328-1.594l-3.984-2.624V5.625A1.14 1.14 0 0 0 13 4.5a1.11 1.11 0 0 0-1.125 1.125Z"/><defs><linearGradient id="a" x1="13" x2="13" y1="10" y2="24" gradientUnits="userSpaceOnUse"><stop stop-color="#fff"/><stop offset="1" stop-color="#E1EBF6"/></linearGradient></defs></svg>