<svg xmlns="http://www.w3.org/2000/svg" width="197" height="32" viewBox="0 0 197 32" fill="none"><g clip-path="url(#clip0_1_2)"><path d="M12.6897 5.65977L19.7417 17.9598L22.2395 14.2298H32.0101C31.1273 6.22976 24.3261 0.00976562 16.0602 0.00976562C7.79439 0.00976562 0.993132 6.21977 0.100342 14.2198H6.23953L12.6797 5.65977H12.6897Z" fill="url(#paint0_linear_1_2)"></path><path d="M19.501 24.7096L12.2784 12.1196L8.0251 17.7796H0.100335C0.100335 17.7796 0.100335 17.8196 0.100335 17.8496L-0.0100098 17.7796V31.9996L4.69469 27.3096C7.59375 30.2096 11.6063 31.9996 16.0401 31.9996C24.306 31.9996 31.0972 25.7796 31.99 17.7796H24.1254L19.4909 24.7196L19.501 24.7096Z" fill="url(#paint1_linear_1_2)"></path></g><path d="M49.2912 23V9.90909H54.2003C55.206 9.90909 56.0497 10.0966 56.7315 10.4716C57.4176 10.8466 57.9354 11.3622 58.2848 12.0185C58.6385 12.6705 58.8153 13.4119 58.8153 14.2429C58.8153 15.0824 58.6385 15.8281 58.2848 16.4801C57.9311 17.1321 57.4091 17.6456 56.7188 18.0206C56.0284 18.3913 55.1783 18.5767 54.1683 18.5767H50.9148V16.6271H53.8487C54.4368 16.6271 54.9183 16.5249 55.2933 16.3203C55.6683 16.1158 55.9453 15.8345 56.1243 15.4766C56.3075 15.1186 56.3991 14.7074 56.3991 14.2429C56.3991 13.7784 56.3075 13.3693 56.1243 13.0156C55.9453 12.6619 55.6662 12.3871 55.2869 12.1911C54.9119 11.9908 54.4283 11.8906 53.8359 11.8906H51.6626V23H49.2912ZM60.5929 23V13.1818H62.8365V14.8182H62.9388C63.1178 14.2514 63.4246 13.8146 63.8592 13.5078C64.2982 13.1967 64.7989 13.0412 65.3614 13.0412C65.4892 13.0412 65.632 13.0476 65.7896 13.0604C65.9516 13.0689 66.0858 13.0838 66.1923 13.1051V15.2337C66.0943 15.1996 65.9388 15.1697 65.7257 15.1442C65.5169 15.1143 65.3145 15.0994 65.1185 15.0994C64.6966 15.0994 64.3173 15.1911 63.9807 15.3743C63.6483 15.5533 63.3862 15.8026 63.1945 16.1222C63.0027 16.4418 62.9068 16.8104 62.9068 17.228V23H60.5929ZM71.4919 23.1918C70.5075 23.1918 69.6574 22.9872 68.9415 22.5781C68.2298 22.1648 67.6823 21.581 67.2987 20.8267C66.9152 20.0682 66.7235 19.1754 66.7235 18.1484C66.7235 17.1385 66.9152 16.2521 67.2987 15.4893C67.6865 14.7223 68.2277 14.1257 68.9223 13.6996C69.6169 13.2692 70.433 13.054 71.3705 13.054C71.9756 13.054 72.5466 13.152 73.0835 13.348C73.6247 13.5398 74.102 13.8381 74.5154 14.2429C74.933 14.6477 75.2611 15.1634 75.4997 15.7898C75.7384 16.4119 75.8577 17.1534 75.8577 18.0142V18.7237H67.8101V17.1641H73.6396C73.6354 16.7209 73.5395 16.3267 73.352 15.9815C73.1645 15.6321 72.9024 15.3572 72.5658 15.157C72.2334 14.9567 71.8456 14.8565 71.4024 14.8565C70.9294 14.8565 70.5139 14.9716 70.156 15.2017C69.798 15.4276 69.5189 15.7259 69.3186 16.0966C69.1226 16.4631 69.0225 16.8658 69.0182 17.3047V18.6662C69.0182 19.2372 69.1226 19.7273 69.3314 20.1364C69.5402 20.5412 69.8321 20.8523 70.2071 21.0696C70.5821 21.2827 71.021 21.3892 71.5239 21.3892C71.8605 21.3892 72.1652 21.3423 72.4379 21.2486C72.7107 21.1506 72.9472 21.0078 73.1475 20.8203C73.3477 20.6328 73.499 20.4006 73.6013 20.1236L75.7618 20.3665C75.6254 20.9375 75.3655 21.4361 74.982 21.8622C74.6027 22.2841 74.1169 22.6122 73.5246 22.8466C72.9323 23.0767 72.2547 23.1918 71.4919 23.1918ZM83.5862 16.5952V18.5H77.6928V16.5952H83.5862ZM85.9423 9.90909H88.8443L92.7306 19.3949H92.884L96.7704 9.90909H99.6724V23H97.3968V14.0064H97.2754L93.6575 22.9616H91.9572L88.3393 13.9872H88.2179V23H85.9423V9.90909ZM104.798 23.1982C104.176 23.1982 103.615 23.0874 103.117 22.8658C102.622 22.6399 102.23 22.3075 101.941 21.8686C101.655 21.4297 101.512 20.8885 101.512 20.245C101.512 19.6911 101.615 19.233 101.819 18.8707C102.024 18.5085 102.303 18.2188 102.656 18.0014C103.01 17.7841 103.409 17.62 103.852 17.5092C104.299 17.3942 104.762 17.3111 105.239 17.2599C105.814 17.2003 106.281 17.147 106.639 17.1001C106.997 17.049 107.257 16.9723 107.419 16.87C107.585 16.7635 107.668 16.5994 107.668 16.3778V16.3395C107.668 15.858 107.525 15.4851 107.24 15.2209C106.954 14.9567 106.543 14.8246 106.006 14.8246C105.439 14.8246 104.99 14.9482 104.657 15.1953C104.329 15.4425 104.107 15.7344 103.992 16.071L101.832 15.7642C102.002 15.1676 102.284 14.669 102.676 14.2685C103.068 13.8636 103.547 13.5611 104.114 13.3608C104.681 13.1562 105.307 13.054 105.993 13.054C106.466 13.054 106.937 13.1094 107.406 13.2202C107.875 13.331 108.303 13.5142 108.691 13.7699C109.078 14.0213 109.389 14.3643 109.624 14.799C109.862 15.2337 109.982 15.777 109.982 16.429V23H107.757V21.6513H107.681C107.54 21.924 107.342 22.1797 107.086 22.4183C106.835 22.6527 106.517 22.8423 106.134 22.9872C105.754 23.1278 105.309 23.1982 104.798 23.1982ZM105.399 21.4979C105.863 21.4979 106.266 21.4062 106.607 21.223C106.948 21.0355 107.21 20.7884 107.393 20.4815C107.58 20.1747 107.674 19.8402 107.674 19.478V18.321C107.602 18.3807 107.478 18.4361 107.303 18.4872C107.133 18.5384 106.941 18.5831 106.728 18.6214C106.515 18.6598 106.304 18.6939 106.095 18.7237C105.887 18.7536 105.705 18.7791 105.552 18.8004C105.207 18.8473 104.898 18.924 104.625 19.0305C104.352 19.1371 104.137 19.2862 103.98 19.478C103.822 19.6655 103.743 19.9084 103.743 20.2067C103.743 20.6328 103.899 20.9545 104.21 21.1719C104.521 21.3892 104.917 21.4979 105.399 21.4979ZM112.128 23V13.1818H114.372V14.8182H114.474C114.653 14.2514 114.96 13.8146 115.395 13.5078C115.834 13.1967 116.334 13.0412 116.897 13.0412C117.025 13.0412 117.168 13.0476 117.325 13.0604C117.487 13.0689 117.621 13.0838 117.728 13.1051V15.2337C117.63 15.1996 117.474 15.1697 117.261 15.1442C117.052 15.1143 116.85 15.0994 116.654 15.0994C116.232 15.0994 115.853 15.1911 115.516 15.3743C115.184 15.5533 114.922 15.8026 114.73 16.1222C114.538 16.4418 114.442 16.8104 114.442 17.228V23H112.128ZM121.195 19.919L121.188 17.1257H121.559L125.087 13.1818H127.791L123.451 18.0142H122.972L121.195 19.919ZM119.085 23V9.90909H121.399V23H119.085ZM125.247 23L122.051 18.532L123.611 16.902L128.015 23H125.247ZM133.096 23.1918C132.111 23.1918 131.261 22.9872 130.545 22.5781C129.833 22.1648 129.286 21.581 128.902 20.8267C128.519 20.0682 128.327 19.1754 128.327 18.1484C128.327 17.1385 128.519 16.2521 128.902 15.4893C129.29 14.7223 129.831 14.1257 130.526 13.6996C131.221 13.2692 132.037 13.054 132.974 13.054C133.579 13.054 134.15 13.152 134.687 13.348C135.228 13.5398 135.706 13.8381 136.119 14.2429C136.537 14.6477 136.865 15.1634 137.103 15.7898C137.342 16.4119 137.461 17.1534 137.461 18.0142V18.7237H129.414V17.1641H135.243C135.239 16.7209 135.143 16.3267 134.956 15.9815C134.768 15.6321 134.506 15.3572 134.169 15.157C133.837 14.9567 133.449 14.8565 133.006 14.8565C132.533 14.8565 132.118 14.9716 131.76 15.2017C131.402 15.4276 131.122 15.7259 130.922 16.0966C130.726 16.4631 130.626 16.8658 130.622 17.3047V18.6662C130.622 19.2372 130.726 19.7273 130.935 20.1364C131.144 20.5412 131.436 20.8523 131.811 21.0696C132.186 21.2827 132.625 21.3892 133.127 21.3892C133.464 21.3892 133.769 21.3423 134.042 21.2486C134.314 21.1506 134.551 21.0078 134.751 20.8203C134.951 20.6328 135.103 20.4006 135.205 20.1236L137.365 20.3665C137.229 20.9375 136.969 21.4361 136.586 21.8622C136.206 22.2841 135.721 22.6122 135.128 22.8466C134.536 23.0767 133.858 23.1918 133.096 23.1918ZM144.142 13.1818V14.9716H138.497V13.1818H144.142ZM139.891 10.8295H142.205V20.0469C142.205 20.358 142.252 20.5966 142.345 20.7628C142.443 20.9247 142.571 21.0355 142.729 21.0952C142.887 21.1548 143.061 21.1847 143.253 21.1847C143.398 21.1847 143.53 21.174 143.649 21.1527C143.773 21.1314 143.867 21.1122 143.931 21.0952L144.321 22.9041C144.197 22.9467 144.02 22.9936 143.79 23.0447C143.564 23.0959 143.287 23.1257 142.959 23.1342C142.379 23.1513 141.857 23.0639 141.393 22.8722C140.928 22.6761 140.56 22.3736 140.287 21.9645C140.019 21.5554 139.887 21.044 139.891 20.4304V10.8295ZM150.284 23V9.90909H155.193C156.199 9.90909 157.042 10.0966 157.724 10.4716C158.41 10.8466 158.928 11.3622 159.277 12.0185C159.631 12.6705 159.808 13.4119 159.808 14.2429C159.808 15.0824 159.631 15.8281 159.277 16.4801C158.924 17.1321 158.402 17.6456 157.711 18.0206C157.021 18.3913 156.171 18.5767 155.161 18.5767H151.907V16.6271H154.841C155.429 16.6271 155.911 16.5249 156.286 16.3203C156.661 16.1158 156.938 15.8345 157.117 15.4766C157.3 15.1186 157.392 14.7074 157.392 14.2429C157.392 13.7784 157.3 13.3693 157.117 13.0156C156.938 12.6619 156.659 12.3871 156.28 12.1911C155.905 11.9908 155.421 11.8906 154.829 11.8906H152.655V23H150.284ZM167.843 18.8707V13.1818H170.157V23H167.914V21.255H167.811C167.59 21.8047 167.225 22.2543 166.718 22.6037C166.216 22.9531 165.596 23.1278 164.858 23.1278C164.215 23.1278 163.646 22.9851 163.152 22.6996C162.662 22.4098 162.278 21.9901 162.001 21.4403C161.724 20.8864 161.586 20.2173 161.586 19.4332V13.1818H163.899V19.0753C163.899 19.6974 164.07 20.1918 164.411 20.5582C164.752 20.9247 165.199 21.108 165.753 21.108C166.094 21.108 166.424 21.0249 166.744 20.8587C167.064 20.6925 167.326 20.4453 167.53 20.1172C167.739 19.7848 167.843 19.3693 167.843 18.8707ZM174.671 9.90909V23H172.357V9.90909H174.671ZM184.63 15.777L182.521 16.0071C182.461 15.794 182.357 15.5938 182.207 15.4062C182.063 15.2188 181.867 15.0675 181.619 14.9524C181.372 14.8374 181.07 14.7798 180.712 14.7798C180.23 14.7798 179.825 14.8842 179.497 15.093C179.173 15.3018 179.014 15.5724 179.018 15.9048C179.014 16.1903 179.118 16.4226 179.331 16.6016C179.548 16.7805 179.906 16.9276 180.405 17.0426L182.08 17.4006C183.009 17.6009 183.699 17.9183 184.151 18.353C184.607 18.7876 184.837 19.3565 184.841 20.0597C184.837 20.6776 184.656 21.223 184.298 21.696C183.944 22.1648 183.452 22.5312 182.821 22.7955C182.19 23.0597 181.466 23.1918 180.648 23.1918C179.446 23.1918 178.479 22.9403 177.746 22.4375C177.013 21.9304 176.576 21.2251 176.435 20.3217L178.692 20.1044C178.794 20.5476 179.011 20.8821 179.344 21.108C179.676 21.3338 180.109 21.4467 180.641 21.4467C181.191 21.4467 181.632 21.3338 181.965 21.108C182.301 20.8821 182.47 20.603 182.47 20.2706C182.47 19.9893 182.361 19.7571 182.144 19.5739C181.93 19.3906 181.598 19.25 181.146 19.152L179.472 18.8004C178.53 18.6044 177.833 18.2741 177.381 17.8097C176.93 17.3409 176.706 16.7486 176.71 16.0327C176.706 15.4276 176.87 14.9034 177.202 14.4602C177.539 14.0128 178.006 13.6676 178.602 13.4247C179.203 13.1776 179.896 13.054 180.68 13.054C181.83 13.054 182.736 13.299 183.396 13.7891C184.061 14.2791 184.472 14.9418 184.63 15.777ZM190.916 23.1918C189.931 23.1918 189.081 22.9872 188.365 22.5781C187.654 22.1648 187.106 21.581 186.722 20.8267C186.339 20.0682 186.147 19.1754 186.147 18.1484C186.147 17.1385 186.339 16.2521 186.722 15.4893C187.11 14.7223 187.651 14.1257 188.346 13.6996C189.041 13.2692 189.857 13.054 190.794 13.054C191.399 13.054 191.97 13.152 192.507 13.348C193.048 13.5398 193.526 13.8381 193.939 14.2429C194.357 14.6477 194.685 15.1634 194.923 15.7898C195.162 16.4119 195.281 17.1534 195.281 18.0142V18.7237H187.234V17.1641H193.063C193.059 16.7209 192.963 16.3267 192.776 15.9815C192.588 15.6321 192.326 15.3572 191.989 15.157C191.657 14.9567 191.269 14.8565 190.826 14.8565C190.353 14.8565 189.938 14.9716 189.58 15.2017C189.222 15.4276 188.943 15.7259 188.742 16.0966C188.546 16.4631 188.446 16.8658 188.442 17.3047V18.6662C188.442 19.2372 188.546 19.7273 188.755 20.1364C188.964 20.5412 189.256 20.8523 189.631 21.0696C190.006 21.2827 190.445 21.3892 190.948 21.3892C191.284 21.3892 191.589 21.3423 191.862 21.2486C192.134 21.1506 192.371 21.0078 192.571 20.8203C192.771 20.6328 192.923 20.4006 193.025 20.1236L195.185 20.3665C195.049 20.9375 194.789 21.4361 194.406 21.8622C194.026 22.2841 193.541 22.6122 192.948 22.8466C192.356 23.0767 191.678 23.1918 190.916 23.1918Z" fill="#093A3D"></path><defs><linearGradient id="paint0_linear_1_2" x1="0.100342" y1="8.97976" x2="32" y2="8.97976" gradientUnits="userSpaceOnUse"><stop stop-color="#007696"></stop><stop offset="0.13" stop-color="#009C94"></stop><stop offset="0.15" stop-color="#0EA68D"></stop><stop offset="0.22" stop-color="#28B982"></stop><stop offset="0.28" stop-color="#3EC979"></stop><stop offset="0.37" stop-color="#4FD671"></stop><stop offset="0.47" stop-color="#5BDE6C"></stop><stop offset="0.61" stop-color="#62E369"></stop><stop offset="1" stop-color="#64E569"></stop></linearGradient><linearGradient id="paint1_linear_1_2" x1="-0.0100098" y1="22.0541" x2="38.5" y2="-1.00037" gradientUnits="userSpaceOnUse"><stop stop-color="#007696"></stop><stop offset="0.13" stop-color="#009C94"></stop><stop offset="0.15" stop-color="#0EA68D"></stop><stop offset="0.22" stop-color="#28B982"></stop><stop offset="0.28" stop-color="#3EC979"></stop><stop offset="0.37" stop-color="#4FD671"></stop><stop offset="0.47" stop-color="#5BDE6C"></stop><stop offset="0.61" stop-color="#62E369"></stop><stop offset="1" stop-color="#64E569"></stop></linearGradient><clipPath id="clip0_1_2"><rect width="32" height="32" fill="white"></rect></clipPath></defs></svg>